<?xml version="1.0" standalone="no"?><!DOCTYPE svg PUBLIC "-//W3C//DTD SVG 1.1//EN" "http://www.w3.org/Graphics/SVG/1.1/DTD/svg11.dtd"><svg t="1525840607128" class="icon" style="" viewBox="0 0 1024 1024" version="1.1" xmlns="http://www.w3.org/2000/svg" p-id="9513" xmlns:xlink="http://www.w3.org/1999/xlink" width="200" height="200"><defs><style type="text/css"></style></defs><path d="M512 640a32 32 0 0 1-32-32v-24a120.96 120.96 0 0 1 53.76-96A87.04 87.04 0 0 0 576 416a64 64 0 0 0-128 0 32 32 0 0 1-64 0 128 128 0 0 1 256 0 149.44 149.44 0 0 1-64 121.6c-21.44 18.56-32 28.48-32 46.4V608a32 32 0 0 1-32 32z" p-id="9514" fill="#FF6666"></path><path d="M512 704m-32 0a32 32 0 1 0 64 0 32 32 0 1 0-64 0Z" p-id="9515" fill="#FF6666"></path><path d="M512 960a448 448 0 1 1 448-448 448 448 0 0 1-448 448z m0-832a384 384 0 1 0 384 384A384 384 0 0 0 512 128z" p-id="9516" fill="#FF6666"></path></svg>
